<?xml version="1.0" encoding="utf-8"?>
<!-- Generator: Adobe Illustrator 16.0.0, SVG Export Plug-In . SVG Version: 6.00 Build 0)  -->
<!DOCTYPE svg PUBLIC "-//W3C//DTD SVG 1.1//EN" "http://www.w3.org/Graphics/SVG/1.1/DTD/svg11.dtd">
<svg version="1.1" id="Layer_1" xmlns="http://www.w3.org/2000/svg" xmlns:xlink="http://www.w3.org/1999/xlink" x="0px" y="0px"
	 width="40px" height="40px" viewBox="0 0 40 40" enable-background="new 0 0 40 40" xml:space="preserve">
<path fill="#A0A09F" d="M0,0v40h40V0H0z M30.6,14.6c0,0.2,0,0.5,0,0.7c0,7.2-5.5,15.6-15.6,15.6c-3.1,0-6-0.9-8.4-2.5
	c0.4,0,0.9,0.1,1.3,0.1c2.6,0,4.9-0.9,6.8-2.3c-2.4,0-4.4-1.6-5.1-3.8c0.3,0.1,0.7,0.1,1,0.1c0.5,0,1-0.1,1.4-0.2
	c-2.5-0.5-4.4-2.7-4.4-5.4v-0.1c0.7,0.4,1.6,0.7,2.5,0.7c-1.5-1-2.4-2.7-2.4-4.6c0-1,0.3-1.9,0.7-2.8c2.7,3.3,6.7,5.5,11.3,5.7
	c-0.1-0.4-0.1-0.8-0.1-1.2c0-3,2.5-5.5,5.5-5.5c1.6,0,3,0.7,4,1.7c1.2-0.2,2.4-0.7,3.5-1.3c-0.4,1.3-1.3,2.3-2.4,3
	c1.1-0.1,2.2-0.4,3.1-0.9C32.6,12.8,31.7,13.8,30.6,14.6z"/>
</svg>
