<?xml version="1.0" encoding="utf-8"?>
<!-- Generator: Adobe Illustrator 16.0.0, SVG Export Plug-In . SVG Version: 6.00 Build 0)  -->
<!DOCTYPE svg PUBLIC "-//W3C//DTD SVG 1.1//EN" "http://www.w3.org/Graphics/SVG/1.1/DTD/svg11.dtd">
<svg version="1.1" id="Layer_1" xmlns="http://www.w3.org/2000/svg" xmlns:xlink="http://www.w3.org/1999/xlink" x="0px" y="0px"
	 width="40px" height="40px" viewBox="0 0 40 40" enable-background="new 0 0 40 40" xml:space="preserve">
<path fill="#A0A09F" d="M0,0v40h40V0H0z M12.5,33.6H6.8V15.4h5.6V33.6z M9.7,13c-1.8,0-3.3-1.5-3.3-3.3c0-1.8,1.5-3.3,3.3-3.3
	c1.8,0,3.3,1.5,3.3,3.3C12.9,11.5,11.5,13,9.7,13z M33.6,33.6H28v-8.8c0-2.1,0-4.8-2.9-4.8c-2.9,0-3.4,2.3-3.4,4.7v9H16V15.4h5.4
	v2.5h0.1c0.8-1.4,2.6-2.9,5.3-2.9c5.7,0,6.8,3.8,6.8,8.6V33.6z"/>
</svg>
