<?xml version="1.0" encoding="utf-8"?>
<!-- Generator: Adobe Illustrator 16.0.0, SVG Export Plug-In . SVG Version: 6.00 Build 0)  -->
<!DOCTYPE svg PUBLIC "-//W3C//DTD SVG 1.1//EN" "http://www.w3.org/Graphics/SVG/1.1/DTD/svg11.dtd">
<svg version="1.1" id="Layer_1" xmlns="http://www.w3.org/2000/svg" xmlns:xlink="http://www.w3.org/1999/xlink" x="0px" y="0px"
	 width="86px" height="86.7px" viewBox="0 0 86 86.7" enable-background="new 0 0 86 86.7" xml:space="preserve">
<g>
	<g>
		<path fill="#E6007E" d="M43,83.4c-22.1,0-40.1-18-40.1-40.1S20.9,3.2,43,3.2s40.1,18,40.1,40.1S65.1,83.4,43,83.4z"/>
		<path fill="#FFFFFF" d="M43,4.2c21.6,0,39.1,17.5,39.1,39.1S64.6,82.4,43,82.4S3.9,64.9,3.9,43.3S21.4,4.2,43,4.2 M43,2.2
			C20.3,2.2,1.9,20.7,1.9,43.3S20.3,84.4,43,84.4S84.1,66,84.1,43.3S65.7,2.2,43,2.2L43,2.2z"/>
	</g>
	<g id="Ruby_1_">
		<g>
			<ellipse fill="#FFFFFF" cx="53" cy="63" rx="2.9" ry="2.2"/>
			<ellipse fill="#FFFFFF" cx="34.5" cy="64.2" rx="4.2" ry="3.1"/>
			<ellipse fill="#FFFFFF" cx="49.5" cy="66.1" rx="4.2" ry="3.3"/>
			<ellipse fill="#FFFFFF" cx="39.3" cy="66.8" rx="4.8" ry="3.2"/>
			<ellipse fill="#FFFFFF" cx="43" cy="68.8" rx="5.1" ry="3.3"/>
		</g>
		
			<polygon fill="none" stroke="#E4087D" stroke-width="3" stroke-linecap="round" stroke-linejoin="round" stroke-miterlimit="10" points="
			63.4,50.6 43,70.5 22.6,50.2 		"/>
		<g>
			<path fill="#E6007E" d="M43.2,69.9c-0.3,0-0.5-0.1-0.7-0.3L23,50.1c-0.4-0.4-0.4-1,0-1.4l8.6-8.6c0.2-0.2,0.4-0.3,0.7-0.3
				c0,0,21.6,0.2,21.6,0.2c0.3,0,0.5,0.1,0.7,0.3l8.6,8.6c0.2,0.2,0.3,0.4,0.3,0.7s-0.1,0.5-0.3,0.7L43.9,69.6
				C43.7,69.8,43.4,69.9,43.2,69.9z"/>
			<path fill="#FFFFFF" d="M32.2,40.9L53.8,41l8.6,8.6L43.2,68.9L23.7,49.4L32.2,40.9 M32.2,38.9c-0.5,0-1,0.2-1.4,0.6L22.2,48
				c-0.8,0.8-0.8,2,0,2.8l19.5,19.5c0.4,0.4,0.9,0.6,1.4,0.6l0,0c0.5,0,1-0.2,1.4-0.6L63.8,51c0.4-0.4,0.6-0.9,0.6-1.4
				c0-0.5-0.2-1-0.6-1.4l-8.6-8.6c-0.4-0.4-0.9-0.6-1.4-0.6L32.2,38.9C32.2,38.9,32.2,38.9,32.2,38.9L32.2,38.9z"/>
		</g>
		<polygon opacity="5.000000e-02" fill="#030304" points="51.3,49.7 43.2,68.9 62.4,49.6 		"/>
		<polygon opacity="5.000000e-02" fill="#030304" points="23.7,49.4 30.2,56 43.2,68.9 34.8,49.6 		"/>
		<polygon opacity="5.000000e-02" fill="#030304" points="51.3,49.7 53.8,41 32.2,40.9 34.8,49.6 43,40.9 		"/>
		<polygon opacity="0.1" fill="#FFFFFF" points="34.8,49.6 51.3,49.7 43,40.9 		"/>
		<circle fill="#FFFFFF" cx="43" cy="33.8" r="4.2"/>
		<circle fill="#FFFFFF" cx="43" cy="24.4" r="3.3"/>
		<circle fill="#FFFFFF" cx="43" cy="17" r="2.4"/>
	</g>
</g>
</svg>
