<svg xmlns="http://www.w3.org/2000/svg" width="500.3" height="132.4" viewBox="0 0 500.3 132.4"><g fill="#fff" opacity=".8"><path d="M14.3 98.9h-5.2v20.3h-2v-20.3h-4.1v-1.2l4.1-.7v-1.7c0-2.7.5-4.7 1.5-5.9 1-1.3 2.6-1.9 4.9-1.9 1.2 0 2.4.2 3.6.5l-.5 1.7c-1.1-.3-2.2-.5-3.2-.5-1.6 0-2.7.5-3.3 1.4-.7.9-1 2.4-1 4.5v2h5.2v1.8zm6-1.8v14.3c0 2.2.5 3.8 1.4 4.8.9 1 2.4 1.5 4.3 1.5 2.6 0 4.6-.7 5.8-2 1.2-1.3 1.9-3.5 1.9-6.5v-12.1h2v22h-1.7l-.4-3h-.1c-1.4 2.3-4 3.4-7.6 3.4-5 0-7.5-2.7-7.5-8v-14.4h1.9zm24.7 22.1h-2v-31.6h2v31.6zm9.4 0h-2v-31.6h2v31.6zm31.8-5.8c0 2-.8 3.5-2.2 4.6-1.5 1.1-3.6 1.6-6.4 1.6-2.9 0-5.3-.5-7-1.4v-2.2c2.2 1.1 4.6 1.7 7 1.7 2.2 0 3.8-.4 5-1.1 1.1-.7 1.7-1.7 1.7-2.9 0-1.1-.4-2-1.3-2.8s-2.4-1.5-4.4-2.2c-2.2-.8-3.8-1.5-4.6-2.1s-1.6-1.2-2-1.9-.7-1.6-.7-2.6c0-1.6.7-3 2.1-3.9 1.4-1 3.3-1.4 5.8-1.4 2.4 0 4.6.4 6.8 1.3l-1 1.8c-2.2-.9-4.2-1.3-6-1.3-1.8 0-3.2.3-4.3.9-1.1.6-1.6 1.4-1.6 2.5s.4 2.1 1.2 2.8 2.4 1.5 4.8 2.3c2 .7 3.4 1.4 4.3 1.9.9.6 1.6 1.2 2 2 .6.6.8 1.5.8 2.4zm11.5 4.4c1.3 0 2.4-.1 3.3-.3v1.6c-1 .3-2.1.5-3.4.5-1.9 0-3.4-.5-4.3-1.6-.9-1-1.4-2.7-1.4-4.9v-14.2h-3.3v-1.2l3.3-.9 1-5h1v5.3h6.5v1.7h-6.4v13.9c0 1.7.3 2.9.9 3.8.6.9 1.6 1.3 2.8 1.3zm21.5 1.4l-.5-3.5h-.2c-1.1 1.4-2.2 2.4-3.4 3-1.2.6-2.6.9-4.1.9-2.2 0-3.8-.6-5-1.7-1.2-1.1-1.8-2.6-1.8-4.6 0-2.1.9-3.8 2.7-5 1.8-1.2 4.4-1.8 7.8-1.9l4.2-.1v-1.5c0-2.1-.4-3.7-1.3-4.7-.9-1.1-2.2-1.6-4.1-1.6-2 0-4.2.6-6.3 1.7l-.8-1.7c2.4-1.1 4.8-1.7 7.2-1.7 2.4 0 4.2.6 5.4 1.9 1.2 1.3 1.8 3.2 1.8 5.9v14.7h-1.6zm-8.1-1.4c2.4 0 4.2-.7 5.6-2 1.4-1.3 2-3.2 2-5.6v-2.2l-3.9.2c-3.1.1-5.3.6-6.6 1.4-1.3.8-2 2.1-2 3.8 0 1.4.4 2.4 1.3 3.2.8.8 2 1.2 3.6 1.2zm25.5 1.8c-3.1 0-5.6-1-7.4-3-1.8-2-2.7-4.8-2.7-8.3 0-3.6.9-6.5 2.8-8.5s4.4-3 7.6-3c1.9 0 3.7.3 5.5 1l-.5 1.8c-1.9-.6-3.6-1-5-1-2.7 0-4.8.8-6.1 2.5-1.4 1.7-2.1 4.1-2.1 7.2 0 3 .7 5.3 2.1 7 1.4 1.7 3.3 2.5 5.8 2.5 2 0 3.9-.4 5.6-1.1v1.9c-1.5.6-3.3 1-5.6 1zm12.9-10.1l11.2-12.4h2.4l-8.7 9.4 9.4 12.6h-2.4l-8.4-11.1-3.6 3.3v7.8h-2v-31.5h2v15.8l-.1 6.1h.2zm37.6-12.8c.9 0 1.9.1 3 .3l-.4 1.9c-.9-.2-1.9-.3-2.9-.3-1.9 0-3.4.8-4.6 2.4-1.2 1.6-1.8 3.6-1.8 6v12.2h-2v-22h1.7l.2 4h.1c.9-1.6 1.9-2.8 2.9-3.4 1.1-.8 2.3-1.1 3.8-1.1zm9.2.4v14.3c0 2.2.5 3.8 1.4 4.8.9 1 2.4 1.5 4.3 1.5 2.6 0 4.6-.7 5.8-2 1.2-1.3 1.9-3.5 1.9-6.5v-12.1h2v22h-1.7l-.4-3h-.1c-1.4 2.3-4 3.4-7.6 3.4-5 0-7.5-2.7-7.5-8v-14.4h1.9zm32-.4c3.1 0 5.4 1 7 2.9 1.6 1.9 2.3 4.8 2.3 8.5s-.8 6.5-2.5 8.5-3.9 3-6.9 3c-1.6 0-3-.3-4.2-1s-2.2-1.6-3-2.8h-.2l-.6 3.3h-1.2v-31.5h2v7.9c0 1.2 0 2.3-.1 3.3l-.1 1.7h.1c.8-1.3 1.8-2.3 3-2.9s2.8-.9 4.4-.9zm0 1.8c-2.6 0-4.5.7-5.6 2.2-1.1 1.5-1.7 3.9-1.7 7.4v.3c0 3.3.6 5.7 1.8 7.2 1.2 1.4 3 2.2 5.5 2.2 2.4 0 4.2-.8 5.4-2.5 1.2-1.7 1.8-4.1 1.8-7.2 0-6.4-2.4-9.6-7.2-9.6zm11.7-1.4h2.1l4.7 12.4c1.4 3.8 2.3 6.4 2.7 7.7h.1c.6-1.7 1.5-4.3 2.8-7.8l4.7-12.2h2.1l-9.9 25.6c-.8 2.1-1.5 3.5-2 4.2-.5.7-1.2 1.3-1.9 1.6-.7.4-1.6.5-2.6.5-.8 0-1.6-.1-2.6-.4v-1.7c.8.2 1.6.3 2.5.3.7 0 1.3-.2 1.8-.5s1-.8 1.4-1.5c.4-.7.9-1.8 1.5-3.2.6-1.5.9-2.4 1.1-2.9l-8.5-22.1zm22.5-6.1c0-1.3.4-1.9 1.3-1.9.4 0 .7.2 1 .5.2.3.4.8.4 1.4 0 .6-.1 1.1-.4 1.4-.2.4-.6.5-1 .5-.9.1-1.3-.6-1.3-1.9zm2.3 28.2h-2v-22h2v22zm21-5.8c0 2-.8 3.5-2.2 4.6-1.5 1.1-3.6 1.6-6.4 1.6-2.9 0-5.3-.5-7-1.4v-2.2c2.2 1.1 4.6 1.7 7 1.7 2.2 0 3.8-.4 5-1.1 1.1-.7 1.7-1.7 1.7-2.9 0-1.1-.4-2-1.3-2.8s-2.4-1.5-4.4-2.2c-2.2-.8-3.8-1.5-4.6-2.1s-1.6-1.2-2-1.9-.7-1.6-.7-2.6c0-1.6.7-3 2.1-3.9 1.4-1 3.3-1.4 5.8-1.4 2.4 0 4.6.4 6.8 1.3l-.8 1.8c-2.2-.9-4.2-1.3-6-1.3-1.8 0-3.2.3-4.3.9-1.1.6-1.6 1.4-1.6 2.5s.4 2.1 1.2 2.8 2.4 1.5 4.8 2.3c2 .7 3.4 1.4 4.3 1.9.9.6 1.6 1.2 2 2 .4.6.6 1.5.6 2.4zm11.5 4.4c1.3 0 2.4-.1 3.3-.3v1.6c-1 .3-2.1.5-3.4.5-1.9 0-3.4-.5-4.3-1.6-.9-1-1.4-2.7-1.4-4.9v-14.2h-3.3v-1.2l3.3-.9 1-5h1v5.3h6.5v1.7h-6.5v13.9c0 1.7.3 2.9.9 3.8.7.9 1.7 1.3 2.9 1.3zm18.6-26.8c0-1.3.4-1.9 1.3-1.9.4 0 .7.2 1 .5.2.3.4.8.4 1.4 0 .6-.1 1.1-.4 1.4-.2.4-.6.5-1 .5-.9.1-1.3-.6-1.3-1.9zm2.3 28.2h-2v-22h2v22zm22.7 0v-14.3c0-2.2-.5-3.8-1.4-4.8-.9-1-2.4-1.5-4.3-1.5-2.6 0-4.6.7-5.8 2-1.2 1.3-1.8 3.5-1.8 6.5v12.2h-2v-22h1.7l.4 3h.1c1.4-2.3 4-3.4 7.6-3.4 5 0 7.5 2.7 7.5 8v14.4h-2zm20.5 0v-29.7h2.1v27.7h14.1v1.9h-16.2zm39-11.1c0 3.6-.9 6.4-2.6 8.4-1.7 2-4.1 3-7.2 3-1.9 0-3.6-.5-5.1-1.4-1.5-.9-2.6-2.3-3.4-4-.8-1.7-1.2-3.8-1.2-6 0-3.6.9-6.4 2.6-8.4 1.7-2 4.1-3 7.2-3 3 0 5.4 1 7.1 3 1.7 2.1 2.6 4.9 2.6 8.4zm-17.4 0c0 3 .7 5.4 2 7.1s3.2 2.5 5.6 2.5c2.4 0 4.3-.8 5.6-2.5 1.3-1.7 2-4.1 2-7.1s-.7-5.4-2-7.1c-1.3-1.7-3.2-2.5-5.7-2.5-2.4 0-4.3.8-5.6 2.5-1.3 1.7-1.9 4.1-1.9 7.1zm38.8 11.1v-14.3c0-2.2-.5-3.8-1.4-4.8-.9-1-2.4-1.5-4.3-1.5-2.6 0-4.6.7-5.8 2-1.2 1.3-1.8 3.5-1.8 6.5v12.2h-2v-22h1.7l.4 3h.1c1.4-2.3 4-3.4 7.6-3.4 5 0 7.5 2.7 7.5 8v14.4h-2zm17.2-22.5c1.6 0 3 .3 4.1.9 1.2.6 2.2 1.6 3.1 3h.1c-.1-1.7-.1-3.4-.1-5v-7.9h2v31.5h-1.3l-.5-3.4h-.2c-1.7 2.5-4.1 3.8-7.2 3.8-3 0-5.4-.9-7-2.8-1.6-1.9-2.4-4.6-2.4-8.3 0-3.8.8-6.7 2.4-8.7s4-3.1 7-3.1zm0 1.8c-2.4 0-4.2.8-5.4 2.5-1.2 1.7-1.8 4.1-1.8 7.4 0 6.2 2.4 9.4 7.3 9.4 2.5 0 4.3-.7 5.5-2.2 1.2-1.4 1.7-3.8 1.7-7.2v-.3c0-3.4-.6-5.9-1.7-7.3-1.2-1.5-3-2.3-5.6-2.3zm34.9 9.6c0 3.6-.9 6.4-2.6 8.4-1.7 2-4.1 3-7.2 3-1.9 0-3.6-.5-5.1-1.4-1.5-.9-2.6-2.3-3.4-4-.8-1.7-1.2-3.8-1.2-6 0-3.6.9-6.4 2.6-8.4 1.7-2 4.1-3 7.2-3 3 0 5.4 1 7.1 3 1.7 2.1 2.6 4.9 2.6 8.4zm-17.4 0c0 3 .7 5.4 2 7.1s3.2 2.5 5.6 2.5c2.4 0 4.3-.8 5.6-2.5 1.3-1.7 2-4.1 2-7.1s-.7-5.4-2-7.1c-1.3-1.7-3.2-2.5-5.7-2.5-2.4 0-4.3.8-5.6 2.5-1.2 1.7-1.9 4.1-1.9 7.1zm38.9 11.1v-14.3c0-2.2-.5-3.8-1.4-4.8-.9-1-2.4-1.5-4.3-1.5-2.6 0-4.6.7-5.8 2-1.2 1.3-1.8 3.5-1.8 6.5v12.2h-2v-22h1.7l.4 3h.1c1.4-2.3 4-3.4 7.6-3.4 5 0 7.5 2.7 7.5 8v14.4h-2zM61.6 31.4c0-2.4.2-6.1.6-11.2l.2-2.2h-.9c-1.4 5.1-2.6 9.2-3.6 12.2l-12 35.2h-12l-12.6-35.2c-1.1-2.7-2.2-6.1-3.1-10.1l-.5-2.1-.9.1c.5 5.3.8 9.8.8 13.3v23.7c2.2.8 3.9 2 4.9 3.3l-.9 6.9h-17.5l-.9-6.9c1.1-1.4 2.7-2.5 5-3.3v-41.6c-2.5-.9-4.2-2-5.1-3.3l.9-6.9h20.5l13.1 36.3c1.7 4 2.8 7.6 3.2 10.9l.2 1.5h1.3c.2-3.7 1.3-7.8 3.2-12.4l12.6-36.3h20.2l.9 6.9c-1 1.3-2.7 2.4-5.1 3.3v41.2c2.3.9 4 2 5 3.2l-1.1 7.5h-20.5l-.9-7.4c1-1.2 2.6-2.2 5-3.1v-23.5zm24.4-4.4c0-.9 0-1.9.1-2.9 5.6-3 11.6-4.5 18-4.5s11 1.2 13.8 3.6c2.8 2.4 4.2 6.5 4.2 12.1v19.2c2.1.4 3.7.9 4.9 1.5v7.8c-3.1 1.4-7.4 2.2-13.1 2.2-.6-1.6-1.1-3.5-1.5-5.7-2.6 3.8-7.3 5.7-14 5.7-4 0-7.5-1.2-10.3-3.5-2.9-2.3-4.3-5.5-4.3-9.5s1.3-7.2 4-9.5 6.6-3.5 11.9-3.5h9.8v-4.3c0-4.7-2.5-7-7.5-7-1.9 0-3.4.2-4.6.5-.1 2.5-.5 4.5-1.1 5.8h-8.8c-.9-2-1.5-4.7-1.5-8zm16.2 29.9c3.1 0 5.5-.9 7.3-2.7v-7.4h-6.3c-4.3 0-6.5 1.7-6.5 5 0 1.5.5 2.7 1.4 3.7 1 .9 2.3 1.4 4.1 1.4zm44.5-47.9v11.3h12.9v7.6h-12.9v22.8c0 1.9.3 3.3.8 4.2.5.9 1.8 1.3 3.9 1.3 2 0 4.2-.5 6.6-1.3l2.7 7c-4.6 2.3-9.3 3.5-14.2 3.5-4.8 0-8.1-1-9.8-3.1-1.7-2.1-2.6-5.1-2.6-9v-25.4h-4l-1-5.5c1-1.1 2.9-2.3 5.9-3.4.7-4.9 2.4-8.2 5.1-10h6.6zm33.5 0v11.3h12.9v7.6h-12.9v22.8c0 1.9.3 3.3.8 4.2.5.9 1.8 1.3 3.9 1.3 2 0 4.2-.5 6.6-1.3l2.7 7c-4.6 2.3-9.3 3.5-14.2 3.5-4.8 0-8.1-1-9.8-3.1-1.7-2.1-2.6-5.1-2.6-9v-25.4h-4l-1-5.5c1-1.1 2.9-2.3 5.9-3.4.7-4.9 2.4-8.2 5.1-10h6.6zm86.6 12.5c0 4.1-1.3 7.5-3.8 10.3-2.6 2.8-5.7 4.9-9.6 6.3 3 1.3 5 2.8 5.9 4.6l6.6 12.5c2.8 1 4.7 2.1 5.8 3.3l-.9 6.9h-15.2l-10.4-22c-1-2.2-2.1-3.3-3.3-3.3h-5.9v14.4c4.4 1 7.1 2.1 8.2 3.5l-.9 7.5h-24.3l-.9-7.5c.8-1 2.4-2 5-3v-41.2c-2.5-.9-4.1-1.9-5-3.1l.9-7.5h23c8.4.1 14.6 1.5 18.7 4 4 2.7 6.1 7.4 6.1 14.3zm-25.5-8.4h-5.3v17.1h5.1c4.1 0 7.1-.6 9.1-1.8 2-1.2 3-3.4 3-6.6 0-3.2-1-5.4-3.1-6.7-1.9-1.4-4.9-2-8.8-2zm34.6 13.9c0-.9 0-1.9.1-2.9 5.6-3 11.6-4.5 18-4.5s11 1.2 13.8 3.6c2.8 2.4 4.2 6.5 4.2 12.1v19.2c2.1.4 3.7.9 4.9 1.5v7.8c-3.1 1.4-7.4 2.2-13.1 2.2-.6-1.6-1.1-3.5-1.5-5.7-2.6 3.8-7.3 5.7-14 5.7-4 0-7.5-1.2-10.3-3.5-2.9-2.3-4.3-5.5-4.3-9.5s1.3-7.2 4-9.5 6.6-3.5 11.9-3.5h9.8v-4.3c0-4.7-2.5-7-7.5-7-1.9 0-3.4.2-4.6.5-.1 2.5-.5 4.5-1.1 5.8h-8.8c-1-2-1.5-4.7-1.5-8zm16.2 29.9c3.1 0 5.5-.9 7.3-2.7v-7.4h-6.4c-4.3 0-6.5 1.7-6.5 5 0 1.5.5 2.7 1.4 3.7 1 .9 2.4 1.4 4.2 1.4zm38 18.9c1.1 0 2.2-1 3.5-3 1.2-2 2.1-4.4 2.6-7.2l-14.8-34.9c-2.9-1-4.9-2.1-5.9-3.4l.9-6.9h20.7l.9 6.9c-.8 1-2.1 1.8-4 2.6l4.9 13.6c1.1 2.8 1.8 5.6 2.2 8.4l.3 1.3h1.3c.5-3 1.3-6.1 2.5-9.4l4.8-13.3c-2.2-.8-3.8-1.9-4.7-3.1l.9-6.9h19.8l.9 6.9c-1.1 1.4-3.1 2.6-5.9 3.5l-14.9 35.1c-2.8 6.7-5 10.9-6.5 12.9-2.6 3.5-6.3 5.3-11 5.3s-8.3-1.2-10.8-3.7c-.1-.6-.1-1.2-.1-1.8 0-3.3.7-6.4 2.1-9.4h7.5c.9 1.6 1.4 3.8 1.5 6.6h1.3zm39.9-55.4c3.3-.7 6.3-1.1 8.9-1.1 2.6 0 4.8.1 6.6.2v4.5c1.5-1.3 3.5-2.3 6-3.1 2.5-.8 4.9-1.2 7.2-1.2 5.9 0 10 1.4 12.4 4.1 2.4 2.8 3.6 7.5 3.6 14.3v17.3c2.3.9 4 1.9 4.9 3.1l-.9 6.9h-20.7l-.9-6.9c.8-1.1 2.5-2.2 5-3.1v-17.8c0-3.2-.5-5.4-1.6-6.5-1.1-1.1-2.9-1.7-5.6-1.7-2.7 0-5.4 1-8.1 2.9v23.1c2.3.9 4 1.9 4.9 3.1l-.9 6.9h-20.8l-.9-6.9c.8-1.1 2.5-2.2 5-3.1v-25c-2.1-.7-3.8-1.7-5-3.1l.9-6.9zm74.2 45.7c-7.2 0-12.6-1.9-16.2-5.8-3.6-3.8-5.4-9.4-5.4-16.7 0-4.4.6-8.3 1.9-11.5 1.3-3.2 3-5.7 5.1-7.4 4.2-3.4 9.1-5 14.7-5s9.9 1.4 12.8 4.3 4.5 8 4.5 15.3c0 4.3-2.1 6.5-6.4 6.5h-19.5c.2 3.8 1.2 6.5 2.9 8 1.7 1.6 4.4 2.3 8.1 2.3 2 0 4-.2 5.8-.7 1.9-.5 3.2-1 4-1.4l1.3-.7 2.7 7.2-1.6 1.6c-.7.6-2.4 1.5-5.2 2.5-2.8 1-5.9 1.5-9.5 1.5zm5.7-28.4c.1-.8.2-1.9.2-3.1s-.5-2.5-1.4-3.8c-1-1.4-2.6-2-5-2s-4.2.7-5.4 2.2c-1.3 1.4-2.1 3.9-2.5 7.3l14.1-.6zm43.2-6.3c-4.6 0-7.7.9-9.4 2.6v20.6c4.9.9 8.2 2.2 10 3.8l-.9 6.9h-25.8l-.9-6.9c.8-1.1 2.5-2.2 5-3.1v-25c-2.1-.7-3.8-1.7-5-3.1l.9-6.9c3.3-.7 6.3-1.1 8.9-1.1 2.6 0 4.8.1 6.6.2v5.7c1.4-1.6 3.2-3 5.3-4s4.1-1.6 5.9-1.6c1.8 0 3 .2 3.6.5l-.3 11.7c-1.1-.2-2.5-.3-3.9-.3z"/></g></svg>