<svg xmlns="http://www.w3.org/2000/svg" width="86" height="86.7" viewBox="0 0 86 86.7"><path fill="#E6007E" d="M43 83.4c-22.1 0-40.1-18-40.1-40.1s18-40.1 40.1-40.1 40.1 18 40.1 40.1-18 40.1-40.1 40.1z"/><path fill="#fff" d="M43 4.2c21.6 0 39.1 17.5 39.1 39.1s-17.5 39.1-39.1 39.1-39.1-17.5-39.1-39.1 17.5-39.1 39.1-39.1m0-2c-22.7 0-41.1 18.5-41.1 41.1s18.4 41.1 41.1 41.1 41.1-18.4 41.1-41.1-18.4-41.1-41.1-41.1z"/><g fill="#fff"><ellipse cx="53" cy="63" rx="2.9" ry="2.2"/><ellipse cx="34.5" cy="64.2" rx="4.2" ry="3.1"/><ellipse cx="49.5" cy="66.1" rx="4.2" ry="3.3"/><ellipse cx="39.3" cy="66.8" rx="4.8" ry="3.2"/><ellipse cx="43" cy="68.8" rx="5.1" ry="3.3"/></g><path stroke="#E4087D" stroke-width="3" stroke-linecap="round" stroke-linejoin="round" stroke-miterlimit="10" d="M63.4 50.6l-20.4 19.9-20.4-20.3z" fill="none"/><path fill="#E6007E" d="M43.2 69.9c-.3 0-.5-.1-.7-.3l-19.5-19.5c-.4-.4-.4-1 0-1.4l8.6-8.6c.2-.2.4-.3.7-.3l21.6.2c.3 0 .5.1.7.3l8.6 8.6c.2.2.3.4.3.7s-.1.5-.3.7l-19.3 19.3c-.2.2-.5.3-.7.3z"/><path fill="#fff" d="M32.2 40.9l21.6.1 8.6 8.6-19.2 19.3-19.5-19.5 8.5-8.5m0-2c-.5 0-1 .2-1.4.6l-8.6 8.5c-.8.8-.8 2 0 2.8l19.5 19.5c.4.4.9.6 1.4.6.5 0 1-.2 1.4-.6l19.3-19.3c.4-.4.6-.9.6-1.4 0-.5-.2-1-.6-1.4l-8.6-8.6c-.4-.4-.9-.6-1.4-.6l-21.6-.1z"/><path opacity=".05" fill="#030304" d="M51.3 49.7l-8.1 19.2 19.2-19.3zm-27.6-.3l6.5 6.6 13 12.9-8.4-19.3zm27.6.3l2.5-8.7-21.6-.1 2.6 8.7 8.2-8.7z"/><path opacity=".1" fill="#fff" d="M34.8 49.6l16.5.1-8.3-8.8z"/><circle fill="#fff" cx="43" cy="33.8" r="4.2"/><circle fill="#fff" cx="43" cy="24.4" r="3.3"/><circle fill="#fff" cx="43" cy="17" r="2.4"/></svg>