<?xml version="1.0" encoding="utf-8"?>
<!-- Generator: Adobe Illustrator 16.0.0, SVG Export Plug-In . SVG Version: 6.00 Build 0)  -->
<!DOCTYPE svg PUBLIC "-//W3C//DTD SVG 1.1//EN" "http://www.w3.org/Graphics/SVG/1.1/DTD/svg11.dtd">
<svg version="1.1" id="Layer_1" xmlns="http://www.w3.org/2000/svg" xmlns:xlink="http://www.w3.org/1999/xlink" x="0px" y="0px"
	 width="500.3px" height="132.4px" viewBox="0 0 500.3 132.4" enable-background="new 0 0 500.3 132.4" xml:space="preserve">
<g opacity="0.8">
	<g>
		<g id="full_stack_rubyist_in_London_7_">
			<path fill="#FFFFFF" d="M14.3,98.9H9.1v20.3h-2V98.9H3v-1.2L7.1,97v-1.7c0-2.7,0.5-4.7,1.5-5.9c1-1.3,2.6-1.9,4.9-1.9
				c1.2,0,2.4,0.2,3.6,0.5l-0.5,1.7c-1.1-0.3-2.2-0.5-3.2-0.5c-1.6,0-2.7,0.5-3.3,1.4c-0.7,0.9-1,2.4-1,4.5v2h5.2V98.9z"/>
			<path fill="#FFFFFF" d="M20.3,97.1v14.3c0,2.2,0.5,3.8,1.4,4.8c0.9,1,2.4,1.5,4.3,1.5c2.6,0,4.6-0.7,5.8-2
				c1.2-1.3,1.9-3.5,1.9-6.5V97.1h2v22h-1.7l-0.4-3h-0.1c-1.4,2.3-4,3.4-7.6,3.4c-5,0-7.5-2.7-7.5-8V97.1H20.3z"/>
			<path fill="#FFFFFF" d="M45,119.2h-2V87.6h2V119.2z"/>
			<path fill="#FFFFFF" d="M54.4,119.2h-2V87.6h2V119.2z"/>
			<path fill="#FFFFFF" d="M86.2,113.4c0,2-0.8,3.5-2.2,4.6c-1.5,1.1-3.6,1.6-6.4,1.6c-2.9,0-5.3-0.5-7-1.4v-2.2
				c2.2,1.1,4.6,1.7,7,1.7c2.2,0,3.8-0.4,5-1.1c1.1-0.7,1.7-1.7,1.7-2.9c0-1.1-0.4-2-1.3-2.8s-2.4-1.5-4.4-2.2
				c-2.2-0.8-3.8-1.5-4.6-2.1s-1.6-1.2-2-1.9s-0.7-1.6-0.7-2.6c0-1.6,0.7-3,2.1-3.9c1.4-1,3.3-1.4,5.8-1.4c2.4,0,4.6,0.4,6.8,1.3
				L85,99.9c-2.2-0.9-4.2-1.3-6-1.3c-1.8,0-3.2,0.3-4.3,0.9c-1.1,0.6-1.6,1.4-1.6,2.5c0,1.1,0.4,2.1,1.2,2.8s2.4,1.5,4.8,2.3
				c2,0.7,3.4,1.4,4.3,1.9c0.9,0.6,1.6,1.2,2,2C86,111.6,86.2,112.5,86.2,113.4z"/>
			<path fill="#FFFFFF" d="M97.7,117.8c1.3,0,2.4-0.1,3.3-0.3v1.6c-1,0.3-2.1,0.5-3.4,0.5c-1.9,0-3.4-0.5-4.3-1.6
				c-0.9-1-1.4-2.7-1.4-4.9V98.9h-3.3v-1.2l3.3-0.9l1-5h1v5.3h6.5v1.7H94v13.9c0,1.7,0.3,2.9,0.9,3.8
				C95.5,117.4,96.5,117.8,97.7,117.8z"/>
			<path fill="#FFFFFF" d="M119.2,119.2l-0.5-3.5h-0.2c-1.1,1.4-2.2,2.4-3.4,3c-1.2,0.6-2.6,0.9-4.1,0.9c-2.2,0-3.8-0.6-5-1.7
				c-1.2-1.1-1.8-2.6-1.8-4.6c0-2.1,0.9-3.8,2.7-5c1.8-1.2,4.4-1.8,7.8-1.9l4.2-0.1v-1.5c0-2.1-0.4-3.7-1.3-4.7
				c-0.9-1.1-2.2-1.6-4.1-1.6c-2,0-4.2,0.6-6.3,1.7l-0.8-1.7c2.4-1.1,4.8-1.7,7.2-1.7c2.4,0,4.2,0.6,5.4,1.9
				c1.2,1.3,1.8,3.2,1.8,5.9v14.7H119.2z M111.1,117.8c2.4,0,4.2-0.7,5.6-2c1.4-1.3,2-3.2,2-5.6V108l-3.9,0.2
				c-3.1,0.1-5.3,0.6-6.6,1.4c-1.3,0.8-2,2.1-2,3.8c0,1.4,0.4,2.4,1.3,3.2C108.3,117.4,109.5,117.8,111.1,117.8z"/>
			<path fill="#FFFFFF" d="M136.6,119.6c-3.1,0-5.6-1-7.4-3c-1.8-2-2.7-4.8-2.7-8.3c0-3.6,0.9-6.5,2.8-8.5c1.9-2,4.4-3,7.6-3
				c1.9,0,3.7,0.3,5.5,1l-0.5,1.8c-1.9-0.6-3.6-1-5-1c-2.7,0-4.8,0.8-6.1,2.5c-1.4,1.7-2.1,4.1-2.1,7.2c0,3,0.7,5.3,2.1,7
				c1.4,1.7,3.3,2.5,5.8,2.5c2,0,3.9-0.4,5.6-1.1v1.9C140.7,119.2,138.9,119.6,136.6,119.6z"/>
			<path fill="#FFFFFF" d="M149.5,109.5l11.2-12.4h2.4l-8.7,9.4l9.4,12.6h-2.4l-8.4-11.1l-3.6,3.3v7.8h-2V87.6h2v15.8l-0.1,6.1
				H149.5z"/>
			<path fill="#FFFFFF" d="M187.1,96.7c0.9,0,1.9,0.1,3,0.3l-0.4,1.9c-0.9-0.2-1.9-0.3-2.9-0.3c-1.9,0-3.4,0.8-4.6,2.4
				c-1.2,1.6-1.8,3.6-1.8,6v12.2h-2v-22h1.7l0.2,4h0.1c0.9-1.6,1.9-2.8,2.9-3.4C184.4,97,185.6,96.7,187.1,96.7z"/>
			<path fill="#FFFFFF" d="M196.3,97.1v14.3c0,2.2,0.5,3.8,1.4,4.8c0.9,1,2.4,1.5,4.3,1.5c2.6,0,4.6-0.7,5.8-2
				c1.2-1.3,1.9-3.5,1.9-6.5V97.1h2v22h-1.7l-0.4-3h-0.1c-1.4,2.3-4,3.4-7.6,3.4c-5,0-7.5-2.7-7.5-8V97.1H196.3z"/>
			<path fill="#FFFFFF" d="M228.3,96.7c3.1,0,5.4,1,7,2.9c1.6,1.9,2.3,4.8,2.3,8.5c0,3.7-0.8,6.5-2.5,8.5s-3.9,3-6.9,3
				c-1.6,0-3-0.3-4.2-1s-2.2-1.6-3-2.8h-0.2l-0.6,3.3H219V87.6h2v7.9c0,1.2,0,2.3-0.1,3.3l-0.1,1.7h0.1c0.8-1.3,1.8-2.3,3-2.9
				S226.7,96.7,228.3,96.7z M228.3,98.5c-2.6,0-4.5,0.7-5.6,2.2c-1.1,1.5-1.7,3.9-1.7,7.4v0.3c0,3.3,0.6,5.7,1.8,7.2
				c1.2,1.4,3,2.2,5.5,2.2c2.4,0,4.2-0.8,5.4-2.5c1.2-1.7,1.8-4.1,1.8-7.2C235.5,101.7,233.1,98.5,228.3,98.5z"/>
			<path fill="#FFFFFF" d="M240,97.1h2.1l4.7,12.4c1.4,3.8,2.3,6.4,2.7,7.7h0.1c0.6-1.7,1.5-4.3,2.8-7.8l4.7-12.2h2.1l-9.9,25.6
				c-0.8,2.1-1.5,3.5-2,4.2c-0.5,0.7-1.2,1.3-1.9,1.6c-0.7,0.4-1.6,0.5-2.6,0.5c-0.8,0-1.6-0.1-2.6-0.4V127c0.8,0.2,1.6,0.3,2.5,0.3
				c0.7,0,1.3-0.2,1.8-0.5c0.5-0.3,1-0.8,1.4-1.5c0.4-0.7,0.9-1.8,1.5-3.2c0.6-1.5,0.9-2.4,1.1-2.9L240,97.1z"/>
			<path fill="#FFFFFF" d="M262.5,91c0-1.3,0.4-1.9,1.3-1.9c0.4,0,0.7,0.2,1,0.5c0.2,0.3,0.4,0.8,0.4,1.4c0,0.6-0.1,1.1-0.4,1.4
				c-0.2,0.4-0.6,0.5-1,0.5C262.9,93,262.5,92.3,262.5,91z M264.8,119.2h-2v-22h2V119.2z"/>
			<path fill="#FFFFFF" d="M285.8,113.4c0,2-0.8,3.5-2.2,4.6c-1.5,1.1-3.6,1.6-6.4,1.6c-2.9,0-5.3-0.5-7-1.4v-2.2
				c2.2,1.1,4.6,1.7,7,1.7c2.2,0,3.8-0.4,5-1.1c1.1-0.7,1.7-1.7,1.7-2.9c0-1.1-0.4-2-1.3-2.8s-2.4-1.5-4.4-2.2
				c-2.2-0.8-3.8-1.5-4.6-2.1s-1.6-1.2-2-1.9s-0.7-1.6-0.7-2.6c0-1.6,0.7-3,2.1-3.9c1.4-1,3.3-1.4,5.8-1.4c2.4,0,4.6,0.4,6.8,1.3
				l-0.8,1.8c-2.2-0.9-4.2-1.3-6-1.3c-1.8,0-3.2,0.3-4.3,0.9c-1.1,0.6-1.6,1.4-1.6,2.5c0,1.1,0.4,2.1,1.2,2.8s2.4,1.5,4.8,2.3
				c2,0.7,3.4,1.4,4.3,1.9c0.9,0.6,1.6,1.2,2,2C285.6,111.6,285.8,112.5,285.8,113.4z"/>
			<path fill="#FFFFFF" d="M297.3,117.8c1.3,0,2.4-0.1,3.3-0.3v1.6c-1,0.3-2.1,0.5-3.4,0.5c-1.9,0-3.4-0.5-4.3-1.6
				c-0.9-1-1.4-2.7-1.4-4.9V98.9h-3.3v-1.2l3.3-0.9l1-5h1v5.3h6.5v1.7h-6.5v13.9c0,1.7,0.3,2.9,0.9,3.8
				C295.1,117.4,296.1,117.8,297.3,117.8z"/>
			<path fill="#FFFFFF" d="M315.9,91c0-1.3,0.4-1.9,1.3-1.9c0.4,0,0.7,0.2,1,0.5c0.2,0.3,0.4,0.8,0.4,1.4c0,0.6-0.1,1.1-0.4,1.4
				c-0.2,0.4-0.6,0.5-1,0.5C316.3,93,315.9,92.3,315.9,91z M318.2,119.2h-2v-22h2V119.2z"/>
			<path fill="#FFFFFF" d="M340.9,119.2v-14.3c0-2.2-0.5-3.8-1.4-4.8c-0.9-1-2.4-1.5-4.3-1.5c-2.6,0-4.6,0.7-5.8,2
				c-1.2,1.3-1.8,3.5-1.8,6.5v12.2h-2v-22h1.7l0.4,3h0.1c1.4-2.3,4-3.4,7.6-3.4c5,0,7.5,2.7,7.5,8v14.4H340.9z"/>
			<path fill="#FFFFFF" d="M361.4,119.2V89.5h2.1v27.7h14.1v1.9H361.4z"/>
			<path fill="#FFFFFF" d="M400.4,108.1c0,3.6-0.9,6.4-2.6,8.4c-1.7,2-4.1,3-7.2,3c-1.9,0-3.6-0.5-5.1-1.4c-1.5-0.9-2.6-2.3-3.4-4
				c-0.8-1.7-1.2-3.8-1.2-6c0-3.6,0.9-6.4,2.6-8.4c1.7-2,4.1-3,7.2-3c3,0,5.4,1,7.1,3C399.5,101.8,400.4,104.6,400.4,108.1z
				 M383,108.1c0,3,0.7,5.4,2,7.1s3.2,2.5,5.6,2.5c2.4,0,4.3-0.8,5.6-2.5c1.3-1.7,2-4.1,2-7.1c0-3-0.7-5.4-2-7.1
				c-1.3-1.7-3.2-2.5-5.7-2.5c-2.4,0-4.3,0.8-5.6,2.5C383.6,102.7,383,105.1,383,108.1z"/>
			<path fill="#FFFFFF" d="M421.8,119.2v-14.3c0-2.2-0.5-3.8-1.4-4.8c-0.9-1-2.4-1.5-4.3-1.5c-2.6,0-4.6,0.7-5.8,2
				c-1.2,1.3-1.8,3.5-1.8,6.5v12.2h-2v-22h1.7l0.4,3h0.1c1.4-2.3,4-3.4,7.6-3.4c5,0,7.5,2.7,7.5,8v14.4H421.8z"/>
			<path fill="#FFFFFF" d="M439,96.7c1.6,0,3,0.3,4.1,0.9c1.2,0.6,2.2,1.6,3.1,3h0.1c-0.1-1.7-0.1-3.4-0.1-5v-7.9h2v31.5h-1.3
				l-0.5-3.4h-0.2c-1.7,2.5-4.1,3.8-7.2,3.8c-3,0-5.4-0.9-7-2.8c-1.6-1.9-2.4-4.6-2.4-8.3c0-3.8,0.8-6.7,2.4-8.7S436,96.7,439,96.7z
				 M439,98.5c-2.4,0-4.2,0.8-5.4,2.5c-1.2,1.7-1.8,4.1-1.8,7.4c0,6.2,2.4,9.4,7.3,9.4c2.5,0,4.3-0.7,5.5-2.2
				c1.2-1.4,1.7-3.8,1.7-7.2v-0.3c0-3.4-0.6-5.9-1.7-7.3C443.4,99.3,441.6,98.5,439,98.5z"/>
			<path fill="#FFFFFF" d="M473.9,108.1c0,3.6-0.9,6.4-2.6,8.4c-1.7,2-4.1,3-7.2,3c-1.9,0-3.6-0.5-5.1-1.4c-1.5-0.9-2.6-2.3-3.4-4
				c-0.8-1.7-1.2-3.8-1.2-6c0-3.6,0.9-6.4,2.6-8.4c1.7-2,4.1-3,7.2-3c3,0,5.4,1,7.1,3C473,101.8,473.9,104.6,473.9,108.1z
				 M456.5,108.1c0,3,0.7,5.4,2,7.1s3.2,2.5,5.6,2.5c2.4,0,4.3-0.8,5.6-2.5c1.3-1.7,2-4.1,2-7.1c0-3-0.7-5.4-2-7.1
				c-1.3-1.7-3.2-2.5-5.7-2.5c-2.4,0-4.3,0.8-5.6,2.5C457.2,102.7,456.5,105.1,456.5,108.1z"/>
			<path fill="#FFFFFF" d="M495.4,119.2v-14.3c0-2.2-0.5-3.8-1.4-4.8c-0.9-1-2.4-1.5-4.3-1.5c-2.6,0-4.6,0.7-5.8,2
				c-1.2,1.3-1.8,3.5-1.8,6.5v12.2h-2v-22h1.7l0.4,3h0.1c1.4-2.3,4-3.4,7.6-3.4c5,0,7.5,2.7,7.5,8v14.4H495.4z"/>
		</g>
		<g id="Matt_Rayner_7_">
			<path fill="#FFFFFF" d="M61.6,31.4c0-2.4,0.2-6.1,0.6-11.2l0.2-2.2L61.5,18c-1.4,5.1-2.6,9.2-3.6,12.2l-12,35.2h-12L21.3,30.2
				c-1.1-2.7-2.2-6.1-3.1-10.1L17.7,18l-0.9,0.1c0.5,5.3,0.8,9.8,0.8,13.3v23.7c2.2,0.8,3.9,2,4.9,3.3l-0.9,6.9H4.1l-0.9-6.9
				c1.1-1.4,2.7-2.5,5-3.3V13.5c-2.5-0.9-4.2-2-5.1-3.3l0.9-6.9h20.5l13.1,36.3c1.7,4,2.8,7.6,3.2,10.9L41,52h1.3
				c0.2-3.7,1.3-7.8,3.2-12.4L58.1,3.3h20.2l0.9,6.9c-1,1.3-2.7,2.4-5.1,3.3v41.2c2.3,0.9,4,2,5,3.2L78,65.4H57.5L56.6,58
				c1-1.2,2.6-2.2,5-3.1V31.4z"/>
			<path fill="#FFFFFF" d="M86,27c0-0.9,0-1.9,0.1-2.9c5.6-3,11.6-4.5,18-4.5c6.4,0,11,1.2,13.8,3.6c2.8,2.4,4.2,6.5,4.2,12.1v19.2
				c2.1,0.4,3.7,0.9,4.9,1.5v7.8c-3.1,1.4-7.4,2.2-13.1,2.2c-0.6-1.6-1.1-3.5-1.5-5.7c-2.6,3.8-7.3,5.7-14,5.7
				c-4,0-7.5-1.2-10.3-3.5c-2.9-2.3-4.3-5.5-4.3-9.5c0-4,1.3-7.2,4-9.5c2.7-2.3,6.6-3.5,11.9-3.5h9.8v-4.3c0-4.7-2.5-7-7.5-7
				c-1.9,0-3.4,0.2-4.6,0.5c-0.1,2.5-0.5,4.5-1.1,5.8h-8.8C86.6,33,86,30.3,86,27z M102.2,56.9c3.1,0,5.5-0.9,7.3-2.7v-7.4h-6.3
				c-4.3,0-6.5,1.7-6.5,5c0,1.5,0.5,2.7,1.4,3.7C99.1,56.4,100.4,56.9,102.2,56.9z"/>
			<path fill="#FFFFFF" d="M146.7,9v11.3h12.9v7.6h-12.9v22.8c0,1.9,0.3,3.3,0.8,4.2c0.5,0.9,1.8,1.3,3.9,1.3c2,0,4.2-0.5,6.6-1.3
				l2.7,7c-4.6,2.3-9.3,3.5-14.2,3.5c-4.8,0-8.1-1-9.8-3.1c-1.7-2.1-2.6-5.1-2.6-9V27.9h-4l-1-5.5c1-1.1,2.9-2.3,5.9-3.4
				c0.7-4.9,2.4-8.2,5.1-10H146.7z"/>
			<path fill="#FFFFFF" d="M180.2,9v11.3h12.9v7.6h-12.9v22.8c0,1.9,0.3,3.3,0.8,4.2c0.5,0.9,1.8,1.3,3.9,1.3c2,0,4.2-0.5,6.6-1.3
				l2.7,7c-4.6,2.3-9.3,3.5-14.2,3.5c-4.8,0-8.1-1-9.8-3.1c-1.7-2.1-2.6-5.1-2.6-9V27.9h-4l-1-5.5c1-1.1,2.9-2.3,5.9-3.4
				c0.7-4.9,2.4-8.2,5.1-10H180.2z"/>
			<path fill="#FFFFFF" d="M266.8,21.5c0,4.1-1.3,7.5-3.8,10.3c-2.6,2.8-5.7,4.9-9.6,6.3c3,1.3,5,2.8,5.9,4.6l6.6,12.5
				c2.8,1,4.7,2.1,5.8,3.3l-0.9,6.9h-15.2l-10.4-22c-1-2.2-2.1-3.3-3.3-3.3H236v14.4c4.4,1,7.1,2.1,8.2,3.5l-0.9,7.5H219l-0.9-7.5
				c0.8-1,2.4-2,5-3V13.8c-2.5-0.9-4.1-1.9-5-3.1l0.9-7.5h23c8.4,0.1,14.6,1.5,18.7,4C264.7,9.9,266.8,14.6,266.8,21.5z M241.3,13.1
				H236v17.1h5.1c4.1,0,7.1-0.6,9.1-1.8c2-1.2,3-3.4,3-6.6c0-3.2-1-5.4-3.1-6.7C248.2,13.7,245.2,13.1,241.3,13.1z"/>
			<path fill="#FFFFFF" d="M275.9,27c0-0.9,0-1.9,0.1-2.9c5.6-3,11.6-4.5,18-4.5c6.4,0,11,1.2,13.8,3.6c2.8,2.4,4.2,6.5,4.2,12.1
				v19.2c2.1,0.4,3.7,0.9,4.9,1.5v7.8c-3.1,1.4-7.4,2.2-13.1,2.2c-0.6-1.6-1.1-3.5-1.5-5.7c-2.6,3.8-7.3,5.7-14,5.7
				c-4,0-7.5-1.2-10.3-3.5c-2.9-2.3-4.3-5.5-4.3-9.5c0-4,1.3-7.2,4-9.5c2.7-2.3,6.6-3.5,11.9-3.5h9.8v-4.3c0-4.7-2.5-7-7.5-7
				c-1.9,0-3.4,0.2-4.6,0.5c-0.1,2.5-0.5,4.5-1.1,5.8h-8.8C276.4,33,275.9,30.3,275.9,27z M292.1,56.9c3.1,0,5.5-0.9,7.3-2.7v-7.4
				H293c-4.3,0-6.5,1.7-6.5,5c0,1.5,0.5,2.7,1.4,3.7C288.9,56.4,290.3,56.9,292.1,56.9z"/>
			<path fill="#FFFFFF" d="M330.1,75.8c1.1,0,2.2-1,3.5-3c1.2-2,2.1-4.4,2.6-7.2l-14.8-34.9c-2.9-1-4.9-2.1-5.9-3.4l0.9-6.9h20.7
				l0.9,6.9c-0.8,1-2.1,1.8-4,2.6l4.9,13.6c1.1,2.8,1.8,5.6,2.2,8.4l0.3,1.3h1.3c0.5-3,1.3-6.1,2.5-9.4l4.8-13.3
				c-2.2-0.8-3.8-1.9-4.7-3.1l0.9-6.9H366l0.9,6.9c-1.1,1.4-3.1,2.6-5.9,3.5l-14.9,35.1c-2.8,6.7-5,10.9-6.5,12.9
				c-2.6,3.5-6.3,5.3-11,5.3c-4.7,0-8.3-1.2-10.8-3.7c-0.1-0.6-0.1-1.2-0.1-1.8c0-3.3,0.7-6.4,2.1-9.4h7.5c0.9,1.6,1.4,3.8,1.5,6.6
				H330.1z"/>
			<path fill="#FFFFFF" d="M370,20.4c3.3-0.7,6.3-1.1,8.9-1.1c2.6,0,4.8,0.1,6.6,0.2V24c1.5-1.3,3.5-2.3,6-3.1
				c2.5-0.8,4.9-1.2,7.2-1.2c5.9,0,10,1.4,12.4,4.1c2.4,2.8,3.6,7.5,3.6,14.3v17.3c2.3,0.9,4,1.9,4.9,3.1l-0.9,6.9h-20.7l-0.9-6.9
				c0.8-1.1,2.5-2.2,5-3.1V37.6c0-3.2-0.5-5.4-1.6-6.5c-1.1-1.1-2.9-1.7-5.6-1.7c-2.7,0-5.4,1-8.1,2.9v23.1c2.3,0.9,4,1.9,4.9,3.1
				l-0.9,6.9H370l-0.9-6.9c0.8-1.1,2.5-2.2,5-3.1v-25c-2.1-0.7-3.8-1.7-5-3.1L370,20.4z"/>
			<path fill="#FFFFFF" d="M444.2,66.1c-7.2,0-12.6-1.9-16.2-5.8c-3.6-3.8-5.4-9.4-5.4-16.7c0-4.4,0.6-8.3,1.9-11.5
				c1.3-3.2,3-5.7,5.1-7.4c4.2-3.4,9.1-5,14.7-5c5.6,0,9.9,1.4,12.8,4.3s4.5,8,4.5,15.3c0,4.3-2.1,6.5-6.4,6.5h-19.5
				c0.2,3.8,1.2,6.5,2.9,8c1.7,1.6,4.4,2.3,8.1,2.3c2,0,4-0.2,5.8-0.7c1.9-0.5,3.2-1,4-1.4l1.3-0.7l2.7,7.2
				c-0.4,0.4-0.9,0.9-1.6,1.6c-0.7,0.6-2.4,1.5-5.2,2.5C450.9,65.6,447.8,66.1,444.2,66.1z M449.9,37.7c0.1-0.8,0.2-1.9,0.2-3.1
				s-0.5-2.5-1.4-3.8c-1-1.4-2.6-2-5-2c-2.4,0-4.2,0.7-5.4,2.2c-1.3,1.4-2.1,3.9-2.5,7.3L449.9,37.7z"/>
			<path fill="#FFFFFF" d="M493.1,31.4c-4.6,0-7.7,0.9-9.4,2.6v20.6c4.9,0.9,8.2,2.2,10,3.8l-0.9,6.9H467l-0.9-6.9
				c0.8-1.1,2.5-2.2,5-3.1v-25c-2.1-0.7-3.8-1.7-5-3.1l0.9-6.9c3.3-0.7,6.3-1.1,8.9-1.1c2.6,0,4.8,0.1,6.6,0.2v5.7
				c1.4-1.6,3.2-3,5.3-4s4.1-1.6,5.9-1.6c1.8,0,3,0.2,3.6,0.5l-0.3,11.7C495.9,31.5,494.5,31.4,493.1,31.4z"/>
		</g>
	</g>
</g>
</svg>
