<?xml version="1.0" encoding="utf-8"?>
<!-- Generator: Adobe Illustrator 16.0.0, SVG Export Plug-In . SVG Version: 6.00 Build 0)  -->
<!DOCTYPE svg PUBLIC "-//W3C//DTD SVG 1.1//EN" "http://www.w3.org/Graphics/SVG/1.1/DTD/svg11.dtd">
<svg version="1.1" id="Layer_1" xmlns="http://www.w3.org/2000/svg" xmlns:xlink="http://www.w3.org/1999/xlink" x="0px" y="0px"
	 width="223px" height="39px" viewBox="0 0 223 39" enable-background="new 0 0 223 39" xml:space="preserve">
<g>
	<polygon fill="#E6007E" points="17.7,2.3 29.9,2.3 29.9,29.7 2.2,29.7 2.2,17.6 	"/>
	<polygon opacity="5.000000e-02" fill="#030304" points="22.1,10.3 29.9,29.7 29.9,2.3 	"/>
	<polygon opacity="5.000000e-02" fill="#030304" points="2.2,29.7 11.5,29.7 29.9,29.7 10.2,22 	"/>
	<polygon opacity="5.000000e-02" fill="#030304" points="22.1,10.3 17.7,2.3 2.2,17.6 10.2,22 9.9,10 	"/>
	<polygon opacity="0.1" fill="#FFFFFF" points="10.2,22 22.1,10.3 9.9,10 	"/>
	<path fill="#FFFFFF" d="M61.6,17.4c0-0.9,0.1-2.2,0.2-4.1l0.1-0.8l-0.3,0c-0.5,1.9-0.9,3.3-1.3,4.4l-4.4,12.9h-4.4L46.9,17
		c-0.4-1-0.8-2.2-1.1-3.7l-0.2-0.8l-0.3,0c0.2,2,0.3,3.6,0.3,4.9v8.6c0.8,0.3,1.4,0.7,1.8,1.2L47,29.8h-6.4l-0.3-2.5
		c0.4-0.5,1-0.9,1.8-1.2V10.9c-0.9-0.3-1.5-0.7-1.9-1.2l0.3-2.5H48l4.8,13.2c0.6,1.4,1,2.8,1.2,4l0.1,0.6h0.5
		c0.1-1.3,0.5-2.8,1.2-4.5l4.6-13.2h7.4L68,9.7c-0.4,0.5-1,0.9-1.9,1.2v15.1c0.9,0.3,1.5,0.7,1.8,1.2l-0.3,2.7h-7.5l-0.3-2.7
		c0.4-0.4,1-0.8,1.8-1.2V17.4z"/>
	<path fill="#FFFFFF" d="M70.5,15.8c0-0.3,0-0.7,0-1.1c2-1.1,4.2-1.6,6.6-1.6c2.3,0,4,0.4,5,1.3c1,0.9,1.5,2.4,1.5,4.4v7
		c0.8,0.2,1.4,0.3,1.8,0.6v2.9c-1.1,0.5-2.7,0.8-4.8,0.8c-0.2-0.6-0.4-1.3-0.6-2.1c-0.9,1.4-2.7,2.1-5.1,2.1c-1.5,0-2.7-0.4-3.8-1.3
		c-1-0.9-1.6-2-1.6-3.5c0-1.5,0.5-2.6,1.5-3.5s2.4-1.3,4.4-1.3h3.6V19c0-1.7-0.9-2.6-2.7-2.6c-0.7,0-1.2,0.1-1.7,0.2
		c0,0.9-0.2,1.6-0.4,2.1h-3.2C70.7,18,70.5,17,70.5,15.8z M76.5,26.7c1.1,0,2-0.3,2.7-1v-2.7h-2.3c-1.6,0-2.4,0.6-2.4,1.8
		c0,0.5,0.2,1,0.5,1.3C75.3,26.6,75.8,26.7,76.5,26.7z"/>
	<path fill="#FFFFFF" d="M92.7,9.2v4.1h4.7v2.8h-4.7v8.3c0,0.7,0.1,1.2,0.3,1.5c0.2,0.3,0.7,0.5,1.4,0.5c0.7,0,1.5-0.2,2.4-0.5
		l1,2.6c-1.7,0.9-3.4,1.3-5.2,1.3c-1.8,0-3-0.4-3.6-1.1c-0.6-0.8-0.9-1.9-0.9-3.3v-9.2h-1.5l-0.4-2c0.4-0.4,1.1-0.8,2.2-1.2
		c0.3-1.8,0.9-3,1.9-3.6H92.7z"/>
	<path fill="#FFFFFF" d="M104.9,9.2v4.1h4.7v2.8h-4.7v8.3c0,0.7,0.1,1.2,0.3,1.5c0.2,0.3,0.7,0.5,1.4,0.5s1.5-0.2,2.4-0.5l1,2.6
		c-1.7,0.9-3.4,1.3-5.2,1.3s-3-0.4-3.6-1.1c-0.6-0.8-0.9-1.9-0.9-3.3v-9.2h-1.5l-0.4-2c0.3-0.4,1.1-0.8,2.2-1.2
		c0.3-1.8,0.9-3,1.9-3.6H104.9z"/>
	<path fill="#FFFFFF" d="M136.6,13.8c0,1.5-0.5,2.7-1.4,3.7c-0.9,1-2.1,1.8-3.5,2.3c1.1,0.5,1.8,1,2.2,1.7l2.4,4.6
		c1,0.4,1.7,0.8,2.1,1.2l-0.3,2.5h-5.6l-3.8-8.1c-0.3-0.8-0.8-1.2-1.2-1.2h-2.1v5.3c1.6,0.4,2.6,0.8,3,1.3l-0.3,2.7h-8.9l-0.3-2.7
		c0.3-0.4,0.9-0.7,1.8-1.1V11c-0.9-0.3-1.5-0.7-1.8-1.1l0.3-2.7h8.4c3.1,0,5.3,0.5,6.8,1.5S136.6,11.3,136.6,13.8z M127.2,10.7h-1.9
		V17h1.9c1.5,0,2.6-0.2,3.3-0.7c0.7-0.4,1.1-1.3,1.1-2.4c0-1.2-0.4-2-1.1-2.4C129.8,11,128.7,10.7,127.2,10.7z"/>
	<path fill="#FFFFFF" d="M139.9,15.8c0-0.3,0-0.7,0-1.1c2-1.1,4.2-1.6,6.6-1.6c2.3,0,4,0.4,5,1.3c1,0.9,1.5,2.4,1.5,4.4v7
		c0.8,0.2,1.4,0.3,1.8,0.6v2.9c-1.1,0.5-2.7,0.8-4.8,0.8c-0.2-0.6-0.4-1.3-0.6-2.1c-0.9,1.4-2.7,2.1-5.1,2.1c-1.5,0-2.7-0.4-3.8-1.3
		s-1.6-2-1.6-3.5c0-1.5,0.5-2.6,1.5-3.5c1-0.8,2.4-1.3,4.4-1.3h3.6V19c0-1.7-0.9-2.6-2.7-2.6c-0.7,0-1.2,0.1-1.7,0.2
		c0,0.9-0.2,1.6-0.4,2.1h-3.2C140.1,18,139.9,17,139.9,15.8z M145.8,26.7c1.1,0,2-0.3,2.7-1v-2.7h-2.3c-1.6,0-2.4,0.6-2.4,1.8
		c0,0.5,0.2,1,0.5,1.3C144.6,26.6,145.1,26.7,145.8,26.7z"/>
	<path fill="#FFFFFF" d="M159.7,33.6c0.4,0,0.8-0.4,1.3-1.1s0.8-1.6,0.9-2.6l-5.4-12.8c-1.1-0.4-1.8-0.8-2.2-1.2l0.3-2.5h7.6
		l0.3,2.5c-0.3,0.4-0.8,0.7-1.4,1l1.8,5c0.4,1,0.7,2,0.8,3.1l0.1,0.5h0.5c0.2-1.1,0.5-2.2,0.9-3.5L167,17c-0.8-0.3-1.4-0.7-1.7-1.1
		l0.3-2.5h7.2l0.3,2.5c-0.4,0.5-1.1,0.9-2.2,1.3L165.5,30c-1,2.4-1.8,4-2.4,4.7c-1,1.3-2.3,1.9-4,1.9c-1.7,0-3-0.4-3.9-1.3
		c0-0.2,0-0.4,0-0.7c0-1.2,0.3-2.3,0.8-3.4h2.7c0.3,0.6,0.5,1.4,0.6,2.4H159.7z"/>
	<path fill="#FFFFFF" d="M174.3,13.4c1.2-0.3,2.3-0.4,3.3-0.4c1,0,1.8,0,2.4,0.1v1.6c0.5-0.5,1.3-0.8,2.2-1.1
		c0.9-0.3,1.8-0.4,2.6-0.4c2.1,0,3.7,0.5,4.5,1.5c0.9,1,1.3,2.8,1.3,5.2v6.3c0.9,0.3,1.5,0.7,1.8,1.1l-0.3,2.5h-7.6l-0.3-2.5
		c0.3-0.4,0.9-0.8,1.8-1.1v-6.5c0-1.2-0.2-2-0.6-2.4c-0.4-0.4-1.1-0.6-2.1-0.6s-2,0.4-3,1.1v8.4c0.9,0.3,1.5,0.7,1.8,1.1l-0.3,2.5
		h-7.6l-0.3-2.5c0.3-0.4,0.9-0.8,1.8-1.1V17c-0.8-0.3-1.4-0.6-1.8-1.1L174.3,13.4z"/>
	<path fill="#FFFFFF" d="M201.4,30.1c-2.6,0-4.6-0.7-5.9-2.1c-1.3-1.4-2-3.4-2-6.1c0-1.6,0.2-3,0.7-4.2c0.5-1.2,1.1-2.1,1.9-2.7
		c1.5-1.2,3.3-1.8,5.4-1.8c2,0,3.6,0.5,4.7,1.6c1.1,1,1.6,2.9,1.6,5.6c0,1.6-0.8,2.4-2.3,2.4h-7.1c0.1,1.4,0.4,2.4,1.1,2.9
		s1.6,0.9,3,0.9c0.7,0,1.5-0.1,2.1-0.3c0.7-0.2,1.2-0.4,1.5-0.5l0.5-0.3l1,2.6c-0.1,0.2-0.3,0.3-0.6,0.6c-0.3,0.2-0.9,0.5-1.9,0.9
		S202.7,30.1,201.4,30.1z M203.5,19.7c0-0.3,0.1-0.7,0.1-1.1s-0.2-0.9-0.5-1.4c-0.4-0.5-1-0.7-1.8-0.7c-0.9,0-1.5,0.3-2,0.8
		c-0.5,0.5-0.8,1.4-0.9,2.7L203.5,19.7z"/>
	<path fill="#FFFFFF" d="M219.2,17.4c-1.7,0-2.8,0.3-3.5,1v7.5c1.8,0.3,3,0.8,3.7,1.4l-0.3,2.5h-9.4l-0.3-2.5
		c0.3-0.4,0.9-0.8,1.8-1.1V17c-0.8-0.3-1.4-0.6-1.8-1.1l0.3-2.5c1.2-0.3,2.3-0.4,3.3-0.4s1.8,0,2.4,0.1v2.1c0.5-0.6,1.2-1.1,1.9-1.5
		c0.8-0.4,1.5-0.6,2.2-0.6s1.1,0.1,1.3,0.2l-0.1,4.3C220.2,17.5,219.8,17.4,219.2,17.4z"/>
</g>
</svg>
