<?xml version="1.0" encoding="utf-8"?>
<!-- Generator: Adobe Illustrator 16.0.0, SVG Export Plug-In . SVG Version: 6.00 Build 0)  -->
<!DOCTYPE svg PUBLIC "-//W3C//DTD SVG 1.1//EN" "http://www.w3.org/Graphics/SVG/1.1/DTD/svg11.dtd">
<svg version="1.1" id="Layer_1" xmlns="http://www.w3.org/2000/svg" xmlns:xlink="http://www.w3.org/1999/xlink" x="0px" y="0px"
	 width="221px" height="37px" viewBox="0 0 221 37" style="enable-background:new 0 0 221 37;" xml:space="preserve">
<style type="text/css">
<![CDATA[
	.st0{fill:#E6007E;}
	.st1{opacity:5.000000e-02;fill:#030304;}
	.st2{fill:#FFFFFF;}
	.st3{opacity:0.1;fill:#FFFFFF;}
]]>
</style>
<g id="Ruby_2_">
	<polygon class="st0" points="16.5,1 28.7,1 28.7,28.4 1,28.4 1,16.2 	"/>
	<polygon class="st1" points="20.8,9 28.7,28.4 28.7,1 	"/>
	<polygon class="st1" points="1,28.4 10.3,28.4 28.7,28.4 9,20.6 	"/>
	<polygon class="st1" points="20.8,9 16.5,1 1,16.2 9,20.6 8.7,8.7 	"/>
	<polygon class="st3" points="9,20.6 20.8,9 8.7,8.7 	"/>
</g>
<g id="Matt_Rayner_2_">
	<path class="st2" d="M60.4,16.1c0-0.9,0.1-2.2,0.2-4.1l0.1-0.8l-0.3,0c-0.5,1.9-0.9,3.3-1.3,4.4l-4.4,12.9h-4.4l-4.6-12.9
		c-0.4-1-0.8-2.2-1.1-3.7l-0.2-0.8l-0.3,0c0.2,2,0.3,3.6,0.3,4.9v8.6c0.8,0.3,1.4,0.7,1.8,1.2l-0.3,2.5h-6.4L39,26
		c0.4-0.5,1-0.9,1.8-1.2V9.6c-0.9-0.3-1.5-0.7-1.9-1.2l0.3-2.5h7.5l4.8,13.2c0.6,1.4,1,2.8,1.2,4l0.1,0.6h0.5
		c0.1-1.3,0.5-2.8,1.2-4.5l4.6-13.2h7.4l0.3,2.5c-0.4,0.5-1,0.9-1.9,1.2v15.1c0.9,0.3,1.5,0.7,1.8,1.2l-0.3,2.7h-7.5l-0.3-2.7
		c0.4-0.4,1-0.8,1.8-1.2V16.1z"/>
	<path class="st2" d="M69.3,14.5c0-0.3,0-0.7,0-1.1c2-1.1,4.2-1.6,6.6-1.6c2.3,0,4,0.4,5,1.3c1,0.9,1.5,2.4,1.5,4.4v7
		c0.8,0.2,1.4,0.3,1.8,0.6V28c-1.1,0.5-2.7,0.8-4.8,0.8c-0.2-0.6-0.4-1.3-0.6-2.1c-0.9,1.4-2.7,2.1-5.1,2.1c-1.5,0-2.7-0.4-3.8-1.3
		c-1-0.9-1.6-2-1.6-3.5c0-1.5,0.5-2.6,1.5-3.5s2.4-1.3,4.4-1.3h3.6v-1.6c0-1.7-0.9-2.6-2.7-2.6c-0.7,0-1.2,0.1-1.7,0.2
		c0,0.9-0.2,1.6-0.4,2.1h-3.2C69.5,16.7,69.3,15.7,69.3,14.5z M75.2,25.4c1.1,0,2-0.3,2.7-1v-2.7h-2.3c-1.6,0-2.4,0.6-2.4,1.8
		c0,0.5,0.2,1,0.5,1.3C74.1,25.2,74.6,25.4,75.2,25.4z"/>
	<path class="st2" d="M91.5,7.9v4.1h4.7v2.8h-4.7v8.3c0,0.7,0.1,1.2,0.3,1.5c0.2,0.3,0.7,0.5,1.4,0.5c0.7,0,1.5-0.2,2.4-0.5l1,2.6
		c-1.7,0.9-3.4,1.3-5.2,1.3c-1.8,0-3-0.4-3.6-1.1c-0.6-0.8-0.9-1.9-0.9-3.3v-9.2h-1.5l-0.4-2c0.4-0.4,1.1-0.8,2.2-1.2
		c0.3-1.8,0.9-3,1.9-3.6H91.5z"/>
	<path class="st2" d="M103.7,7.9v4.1h4.7v2.8h-4.7v8.3c0,0.7,0.1,1.2,0.3,1.5c0.2,0.3,0.7,0.5,1.4,0.5c0.7,0,1.5-0.2,2.4-0.5l1,2.6
		c-1.7,0.9-3.4,1.3-5.2,1.3c-1.8,0-3-0.4-3.6-1.1c-0.6-0.8-0.9-1.9-0.9-3.3v-9.2h-1.5l-0.4-2c0.4-0.4,1.1-0.8,2.2-1.2
		c0.3-1.8,0.9-3,1.9-3.6H103.7z"/>
	<path class="st2" d="M135.3,12.4c0,1.5-0.5,2.7-1.4,3.7c-0.9,1-2.1,1.8-3.5,2.3c1.1,0.5,1.8,1,2.2,1.7l2.4,4.6
		c1,0.4,1.7,0.8,2.1,1.2l-0.3,2.5h-5.6l-3.8-8.1c-0.4-0.8-0.8-1.2-1.2-1.2h-2.1v5.3c1.6,0.4,2.6,0.8,3,1.3l-0.3,2.7h-8.9l-0.3-2.7
		c0.3-0.4,0.9-0.7,1.8-1.1v-15c-0.9-0.3-1.5-0.7-1.8-1.1l0.3-2.7h8.4c3.1,0,5.3,0.5,6.8,1.5S135.3,9.9,135.3,12.4z M126,9.4h-1.9
		v6.2h1.9c1.5,0,2.6-0.2,3.3-0.7c0.7-0.4,1.1-1.3,1.1-2.4c0-1.2-0.4-2-1.1-2.4C128.5,9.6,127.5,9.4,126,9.4z"/>
	<path class="st2" d="M138.7,14.5c0-0.3,0-0.7,0-1.1c2-1.1,4.2-1.6,6.6-1.6c2.3,0,4,0.4,5,1.3c1,0.9,1.5,2.4,1.5,4.4v7
		c0.8,0.2,1.4,0.3,1.8,0.6V28c-1.1,0.5-2.7,0.8-4.8,0.8c-0.2-0.6-0.4-1.3-0.6-2.1c-0.9,1.4-2.7,2.1-5.1,2.1c-1.5,0-2.7-0.4-3.8-1.3
		s-1.6-2-1.6-3.5c0-1.5,0.5-2.6,1.5-3.5s2.4-1.3,4.4-1.3h3.6v-1.6c0-1.7-0.9-2.6-2.7-2.6c-0.7,0-1.2,0.1-1.7,0.2
		c0,0.9-0.2,1.6-0.4,2.1h-3.2C138.8,16.7,138.7,15.7,138.7,14.5z M144.6,25.4c1.1,0,2-0.3,2.7-1v-2.7h-2.3c-1.6,0-2.4,0.6-2.4,1.8
		c0,0.5,0.2,1,0.5,1.3C143.4,25.2,143.9,25.4,144.6,25.4z"/>
	<path class="st2" d="M158.5,32.3c0.4,0,0.8-0.4,1.3-1.1c0.4-0.7,0.8-1.6,0.9-2.6l-5.4-12.8c-1.1-0.4-1.8-0.8-2.2-1.2l0.3-2.5h7.6
		l0.3,2.5c-0.3,0.4-0.8,0.7-1.4,1l1.8,5c0.4,1,0.7,2,0.8,3.1l0.1,0.5h0.5c0.2-1.1,0.5-2.2,0.9-3.5l1.7-4.9c-0.8-0.3-1.4-0.7-1.7-1.1
		l0.3-2.5h7.2l0.3,2.5c-0.4,0.5-1.1,0.9-2.2,1.3l-5.4,12.8c-1,2.4-1.8,4-2.4,4.7c-1,1.3-2.3,1.9-4,1.9c-1.7,0-3-0.4-3.9-1.3
		c0-0.2,0-0.4,0-0.7c0-1.2,0.3-2.3,0.8-3.4h2.7c0.3,0.6,0.5,1.4,0.6,2.4H158.5z"/>
	<path class="st2" d="M173,12.1c1.2-0.3,2.3-0.4,3.3-0.4c1,0,1.8,0,2.4,0.1v1.6c0.5-0.5,1.3-0.8,2.2-1.1c0.9-0.3,1.8-0.4,2.6-0.4
		c2.1,0,3.7,0.5,4.5,1.5c0.9,1,1.3,2.8,1.3,5.2v6.3c0.9,0.3,1.5,0.7,1.8,1.1l-0.3,2.5h-7.6l-0.3-2.5c0.3-0.4,0.9-0.8,1.8-1.1v-6.5
		c0-1.2-0.2-2-0.6-2.4c-0.4-0.4-1.1-0.6-2.1-0.6s-2,0.4-3,1.1v8.4c0.9,0.3,1.5,0.7,1.8,1.1l-0.3,2.5H173l-0.3-2.5
		c0.3-0.4,0.9-0.8,1.8-1.1v-9.1c-0.8-0.3-1.4-0.6-1.8-1.1L173,12.1z"/>
	<path class="st2" d="M200.2,28.8c-2.6,0-4.6-0.7-5.9-2.1c-1.3-1.4-2-3.4-2-6.1c0-1.6,0.2-3,0.7-4.2c0.5-1.2,1.1-2.1,1.9-2.7
		c1.5-1.2,3.3-1.8,5.4-1.8s3.6,0.5,4.7,1.6c1.1,1,1.6,2.9,1.6,5.6c0,1.6-0.8,2.4-2.3,2.4H197c0.1,1.4,0.4,2.4,1.1,2.9s1.6,0.9,3,0.9
		c0.7,0,1.5-0.1,2.1-0.3c0.7-0.2,1.2-0.4,1.5-0.5l0.5-0.3l1,2.6c-0.1,0.2-0.3,0.3-0.6,0.6c-0.3,0.2-0.9,0.5-1.9,0.9
		S201.5,28.8,200.2,28.8z M202.2,18.4c0-0.3,0.1-0.7,0.1-1.1s-0.2-0.9-0.5-1.4c-0.4-0.5-1-0.7-1.8-0.7c-0.9,0-1.5,0.3-2,0.8
		c-0.5,0.5-0.8,1.4-0.9,2.7L202.2,18.4z"/>
	<path class="st2" d="M218,16.1c-1.7,0-2.8,0.3-3.5,1v7.5c1.8,0.3,3,0.8,3.6,1.4l-0.3,2.5h-9.4l-0.3-2.5c0.3-0.4,0.9-0.8,1.8-1.1
		v-9.1c-0.8-0.3-1.4-0.6-1.8-1.1l0.3-2.5c1.2-0.3,2.3-0.4,3.3-0.4s1.8,0,2.4,0.1v2.1c0.5-0.6,1.2-1.1,1.9-1.5
		c0.8-0.4,1.5-0.6,2.2-0.6c0.6,0,1.1,0.1,1.3,0.2l-0.1,4.3C219,16.1,218.5,16.1,218,16.1z"/>
</g>
</svg>
